<?xml version="1.0" encoding="utf-8"?>
<svg xmlns="http://www.w3.org/2000/svg" width="50" height="50" viewBox="0 0 50 50" fill="#4368ff"><path style="text-indent:0;text-align:start;line-height:normal;text-transform:none;block-progression:tb;-inkscape-font-specification:Bitstream Vera Sans" d="M 10 0 C 4.4879088 0 0 4.4879088 0 10 L 0 40 C 0 45.512091 4.4879088 50 10 50 L 40 50 C 45.512091 50 50 45.512091 50 40 L 50 10 C 50 4.4879088 45.512091 0 40 0 L 10 0 z M 10 2 L 40 2 C 44.431909 2 48 5.5680912 48 10 L 48 40 C 48 44.431909 44.431909 48 40 48 L 34 48 L 34 29 L 38 29 L 38.84375 29 L 39 28.15625 L 40 22.15625 L 40.1875 21 L 39 21 L 34 21 L 34 19 C 34 18.442508 34.06282 18.402835 34.25 18.28125 C 34.437185 18.159665 35.005822 18 36 18 L 39 18 L 40 18 L 40 17 L 40 12 L 40 11.28125 L 39.3125 11.0625 C 39.3125 11.0625 36.132647 10 33 10 C 30.086096 10 27.931344 10.973709 26.65625 12.65625 C 25.381156 14.338791 25 16.548821 25 19 L 25 21 L 23 21 L 22 21 L 22 22 L 22 28 L 22 29 L 23 29 L 25 29 L 25 48 L 10 48 C 5.5680912 48 2 44.431909 2 40 L 2 10 C 2 5.5680912 5.5680912 2 10 2 z M 33 12 C 35.17273 12 37.176842 12.514578 38 12.75 L 38 16 L 36 16 C 34.849178 16 33.932815 16.08933 33.15625 16.59375 C 32.379685 17.098165 32 18.061492 32 19 L 32 22 L 32 23 L 33 23 L 37.8125 23 L 37.125 27 L 33 27 L 32 27 L 32 28 L 32 48 L 27 48 L 27 28 L 27 27 L 26 27 L 24 27 L 24 23 L 26 23 L 27 23 L 27 22 L 27 19 C 27 16.774179 27.379844 14.991959 28.25 13.84375 C 29.120156 12.695541 30.494904 12 33 12 z" color="#000" overflow="visible" enable-background="accumulate" font-family="Bitstream Vera Sans" fill="#4368ff"/></svg>
