<svg xmlns="http://www.w3.org/2000/svg" xmlns:xlink="http://www.w3.org/1999/xlink" version="1.1" id="Слой_1" x="0px" y="0px" viewBox="0 0 64 64" style="enable-background:new 0 0 64 64;" xml:space="preserve" width="64" height="64">
<linearGradient id="f_1__44003" gradientUnits="userSpaceOnUse" x1="37.6462" y1="14.5" x2="37.6462" y2="56.8779" spreadMethod="reflect">
	<stop offset="0" style="stop-color:#6DC7FF"/>
	<stop offset="1" style="stop-color:#E6ABFF"/>
</linearGradient>
<path id="f_2_" style="fill:url(#f_1__44003);" d="M42,56V38h5.358l0.934-8H42v-4.457c0-2.097-0.131-3.527,2.877-3.527L48,22.014v-6.479  c-1-0.088-2.487-0.285-5.136-0.285c-5.531,0-8.864,3.376-8.864,9.576V30h-7v8h7v18H42z"/>
<linearGradient id="SVGID_1__44003" gradientUnits="userSpaceOnUse" x1="32" y1="6.8333" x2="32" y2="58.0174" spreadMethod="reflect">
	<stop offset="0" style="stop-color:#1A6DFF"/>
	<stop offset="1" style="stop-color:#C822FF"/>
</linearGradient>
<path style="fill:url(#SVGID_1__44003);" d="M50,57H14c-3.859,0-7-3.141-7-7V14c0-3.859,3.141-7,7-7h36c3.859,0,7,3.141,7,7v36  C57,53.859,53.859,57,50,57z M14,9c-2.757,0-5,2.243-5,5v36c0,2.757,2.243,5,5,5h36c2.757,0,5-2.243,5-5V14c0-2.757-2.243-5-5-5H14z  "/>
</svg>