<svg xmlns="http://www.w3.org/2000/svg" viewBox="0 0 80 80" width="50" height="50" style="fill: rgb(41, 128, 185);">
    <path style="line-height:normal;text-indent:0;text-align:start;text-decoration-line:none;text-decoration-style:solid;text-decoration-color:#000;text-transform:none;block-progression:tb;isolation:auto;mix-blend-mode:normal" d="M 15 10 C 12.250484 10 10 12.250484 10 15 L 10 65 C 10 67.749516 12.250484 70 15 70 L 40.980469 70 L 52.019531 70 L 65 70 C 67.749516 70 70 67.749516 70 65 L 70 15 C 70 12.250484 67.749516 10 65 10 L 15 10 z M 15 12 L 65 12 C 66.668484 12 68 13.331516 68 15 L 68 65 C 68 66.668484 66.668484 68 65 68 L 52.019531 68 L 52.019531 47.539062 L 59.4375 47.539062 L 60.824219 36.785156 L 52.019531 36.785156 L 52.019531 32.197266 C 52.019531 31.022873 52.201606 30.220846 52.589844 29.759766 C 52.978081 29.298686 53.698833 28.935547 55.357422 28.935547 L 60.992188 28.933594 L 60.992188 19.230469 L 60.125 19.113281 C 59.218546 18.992345 56.488849 18.759766 53.238281 18.759766 C 49.69333 18.759766 46.593056 19.858068 44.400391 22.025391 C 42.207725 24.192713 40.980469 27.380528 40.980469 31.330078 L 40.980469 36.785156 L 33.421875 36.785156 L 33.421875 47.539062 L 40.980469 47.539062 L 40.980469 68 L 15 68 C 13.331516 68 12 66.668484 12 65 L 12 15 C 12 13.331516 13.331516 12 15 12 z M 53.238281 20.759766 C 55.976937 20.759766 57.938874 20.941602 58.992188 21.050781 L 58.992188 26.933594 L 55.357422 26.935547 C 53.382011 26.935547 51.93281 27.436736 51.060547 28.472656 C 50.188284 29.508576 50.019531 30.837658 50.019531 32.197266 L 50.019531 38.785156 L 58.548828 38.785156 L 57.677734 45.539062 L 50.019531 45.539062 L 50.019531 68 L 42.980469 68 L 42.980469 45.539062 L 35.421875 45.539062 L 35.421875 38.785156 L 42.980469 38.785156 L 42.980469 31.330078 C 42.980469 27.787629 44.041056 25.192443 45.806641 23.447266 C 47.572225 21.702088 50.100233 20.759766 53.238281 20.759766 z M 15 61 A 1 1 0 0 0 14 62 A 1 1 0 0 0 15 63 A 1 1 0 0 0 16 62 A 1 1 0 0 0 15 61 z M 19 61 A 1 1 0 0 0 18 62 A 1 1 0 0 0 19 63 A 1 1 0 0 0 20 62 A 1 1 0 0 0 19 61 z M 23 61 A 1 1 0 0 0 22 62 A 1 1 0 0 0 23 63 A 1 1 0 0 0 24 62 A 1 1 0 0 0 23 61 z M 27 61 A 1 1 0 0 0 26 62 A 1 1 0 0 0 27 63 A 1 1 0 0 0 28 62 A 1 1 0 0 0 27 61 z M 31 61 A 1 1 0 0 0 30 62 A 1 1 0 0 0 31 63 A 1 1 0 0 0 32 62 A 1 1 0 0 0 31 61 z M 35 61 A 1 1 0 0 0 34 62 A 1 1 0 0 0 35 63 A 1 1 0 0 0 36 62 A 1 1 0 0 0 35 61 z M 39 61 A 1 1 0 0 0 38 62 A 1 1 0 0 0 39 63 A 1 1 0 0 0 40 62 A 1 1 0 0 0 39 61 z M 54 61 A 1 1 0 0 0 53 62 A 1 1 0 0 0 54 63 A 1 1 0 0 0 55 62 A 1 1 0 0 0 54 61 z M 58 61 A 1 1 0 0 0 57 62 A 1 1 0 0 0 58 63 A 1 1 0 0 0 59 62 A 1 1 0 0 0 58 61 z M 62 61 A 1 1 0 0 0 61 62 A 1 1 0 0 0 62 63 A 1 1 0 0 0 63 62 A 1 1 0 0 0 62 61 z M 66 61 A 1 1 0 0 0 65 62 A 1 1 0 0 0 66 63 A 1 1 0 0 0 67 62 A 1 1 0 0 0 66 61 z"/>
</svg>