<?xml version="1.0" encoding="UTF-8"?>
<svg width="317px" height="336px" viewBox="0 0 317 336" version="1.1" xmlns="http://www.w3.org/2000/svg" xmlns:xlink="http://www.w3.org/1999/xlink">
    <!-- Generator: Sketch 43.2 (39069) - http://www.bohemiancoding.com/sketch -->
    <title>omg-img-logo</title>
    <desc>Created with Sketch.</desc>
    <defs></defs>
    <g id="Page-1" stroke="none" stroke-width="1" fill="none" fill-rule="evenodd">
        <g id="omg-img" transform="translate(-120.000000, -180.000000)">
            <g id="omg-img-logo" transform="translate(120.000000, 180.000000)">
                <path d="M38.96,303 L38.96,292.816 L65.408,292.816 L65.408,237.184 L38.96,237.184 L38.96,227 L77.568,227 L77.568,292.816 L103.408,292.816 L103.408,303 L38.96,303 Z M154.024,303 L154.024,252.384 C154.024,250.255989 153.948001,248.20401 153.796,246.228 C153.643999,244.25199 153.289336,242.478675 152.732,240.908 C152.174664,239.337325 151.364005,238.096005 150.3,237.184 C149.235995,236.271995 147.842675,235.816 146.12,235.816 C142.674649,235.816 139.761345,237.234652 137.38,240.072 C134.998655,242.909348 133.200006,246.455979 131.984,250.712 L131.984,303 L120.432,303 L120.432,227 L128.336,227 L130.616,236.272 L131.224,236.272 C132.237338,234.751992 133.225329,233.308007 134.188,231.94 C135.150671,230.571993 136.265327,229.381338 137.532,228.368 C138.798673,227.354662 140.293325,226.569336 142.016,226.012 C143.738675,225.454664 145.91732,225.176 148.552,225.176 C150.072008,225.176 151.642659,225.403998 153.264,225.86 C154.885341,226.316002 156.379993,227.025329 157.748,227.988 C159.116007,228.950671 160.306662,230.242659 161.32,231.864 C162.333338,233.485341 162.991998,235.461322 163.296,237.792 C165.626678,233.83998 168.235986,230.749344 171.124,228.52 C174.012014,226.290656 177.989308,225.176 183.056,225.176 C186.400017,225.176 189.110656,225.733328 191.188,226.848 C193.265344,227.962672 194.886661,229.558656 196.052,231.636 C197.217339,233.713344 198.027998,236.195986 198.484,239.084 C198.940002,241.972014 199.168,245.189316 199.168,248.736 L199.168,303 L187.616,303 L187.616,251.32 C187.616,249.191989 187.514668,247.190676 187.312,245.316 C187.109332,243.441324 186.729336,241.794674 186.172,240.376 C185.614664,238.957326 184.854671,237.842671 183.892,237.032 C182.929329,236.221329 181.637341,235.816 180.016,235.816 C176.469316,235.816 173.480012,237.234652 171.048,240.072 C168.615988,242.909348 166.792006,246.96264 165.576,252.232 L165.576,303 L154.024,303 Z M285.048,306.8 C285.048,311.56269 284.136009,315.742649 282.312,319.34 C280.487991,322.937351 277.980016,325.901322 274.788,328.232 C271.595984,330.562678 267.872021,332.310661 263.616,333.476 C259.359979,334.641339 254.749358,335.224 249.784,335.224 C243.805303,335.224 238.586689,334.616006 234.128,333.4 C229.669311,332.183994 225.818683,330.613343 222.576,328.688 L228.352,317.896 C229.264005,318.706671 230.454659,319.491996 231.924,320.252 C233.393341,321.012004 235.090657,321.72133 237.016,322.38 C238.941343,323.03867 240.993322,323.570665 243.172,323.976 C245.350678,324.381335 247.503989,324.584 249.632,324.584 C254.090689,324.584 257.814652,324.178671 260.804,323.368 C263.793348,322.557329 266.199991,321.290675 268.024,319.568 C269.848009,317.845325 271.165329,315.616014 271.976,312.88 C272.786671,310.143986 273.192,306.80002 273.192,302.848 L273.192,294.336 L272.584,294.336 C270.253322,297.680017 267.264018,300.263991 263.616,302.088 C259.967982,303.912009 255.256029,304.824 249.48,304.824 C237.927942,304.824 229.44136,301.606699 224.02,295.172 C218.59864,288.737301 215.888,278.730735 215.888,265.152 C215.888,252.181268 219.333299,242.377367 226.224,235.74 C233.114701,229.102633 243.349265,225.784 256.928,225.784 C263.210698,225.784 268.555978,226.214662 272.964,227.076 C277.372022,227.937338 281.399982,229.02666 285.048,230.344 L285.048,306.8 Z M251.152,294.64 C257.333364,294.64 262.197316,293.044016 265.744,289.852 C269.290684,286.659984 271.773326,281.7707 273.192,275.184 L273.192,239.16 C268.733311,237.031989 262.501373,235.968 254.496,235.968 C246.389293,235.968 240.005357,238.34931 235.344,243.112 C230.682643,247.87469 228.352,255.170618 228.352,265 C228.352,269.357355 228.757329,273.334649 229.568,276.932 C230.378671,280.529351 231.670658,283.64532 233.444,286.28 C235.217342,288.91468 237.547986,290.966659 240.436,292.436 C243.324014,293.905341 246.895979,294.64 251.152,294.64 Z" id="img" fill="#B1B1B1"></path>
                <g id="Group-5">
                    <path d="M65.0820312,209.285156 L66.7558594,183.71875 C66.7558594,183.71875 34.921875,183.275391 20.7929687,171.673828 C6.89905098,160.26522 -21.2073153,124.898484 27.7260027,73.1996338 C28.5536143,72.3252487 29.4032631,71.4461918 30.2753906,70.5625 C82.7128906,17.4296875 167.828125,-6.12304687 239.103516,2.08398437 C310.378906,10.2910156 323.832031,46.5175781 314.085938,92.640625 C304.339844,138.763672 261.994141,166.578125 223.861328,175.148437 C185.728516,183.71875 153.789063,181.150391 121.865234,186.912109 C89.9414062,192.673828 65.0820312,209.285156 65.0820312,209.285156 Z" id="Path-2" fill="#32C24D"></path>
                    <g id="Group-6" transform="translate(160.292969, 99.839844) rotate(-6.000000) translate(-160.292969, -99.839844) translate(56.292969, 55.839844)">
                        <path d="M35.6269531,18.0253906 C8.40039063,34.8945313 -1.39257813,61.2246094 0.1640625,71.75 C1.72070312,82.2753906 14.1503906,102.615234 50.1777344,67.6640625 C86.2050781,32.7128906 84.3925781,24.671875 84.3925781,14.0996094 C84.3925781,3.52734375 62.8535156,1.15625 35.6269531,18.0253906 Z" id="Path-3" stroke="#FFFFFF" stroke-width="4"></path>
                        <path d="M68.1474609,68.3837891 L111.051758,3.04785156 L112.431641,10.5341797 C112.431641,10.5341797 72.6005859,73.1005859 70.6162109,73.7871094 C68.6318359,74.4736328 68.1474609,68.3837891 68.1474609,68.3837891 Z" id="Path-4" fill="#FFFFFF"></path>
                        <path d="M107.854492,18.8085938 C107.854492,27.2373047 106.612305,33.5810547 109.801758,32.8730469 C112.991211,32.1650391 143.696289,11.6445313 152.672852,3.06738281 C161.649414,-5.50976562 154.673828,8.08789063 148.520508,13.4482422 C142.367188,18.8085938 124.076172,52.1181641 123.316406,59.2412109 C122.556641,66.3642578 119.647461,52.7490234 128.791016,37.1171875 C137.93457,21.4853516 142.219727,13.8613281 142.219727,13.8613281 C142.219727,13.8613281 125.429688,28.0635115 121.604492,29.4023438 C117.779297,30.741176 110.375977,36.4277344 108.078125,35.5087891 C105.780273,34.5898438 104.632812,17.9140625 104.632812,17.9140625 C104.632812,17.9140625 107.854492,10.3798828 107.854492,18.8085938 Z" id="Path-5" fill="#FFFFFF"></path>
                        <path d="M207.214844,8.11816406 C207.214844,2.85742187 191.480469,-9.05273438 161.507812,19.2158203 C131.535156,47.484375 138.501953,67.5952148 150.004883,66.0087891 C161.507812,64.4223633 172.886719,56.8742676 174.455078,52.1367187 C176.023438,47.3991699 176.720703,45.3037109 173.277344,41.7451172 C169.833984,38.1865234 165.353516,40.6298828 167.926758,42.7519531 C170.5,44.8740234 174.40918,51.4716797 171.167969,53.9648437 C167.926758,56.4580078 158.232422,63.5058594 152.853516,63.2490234 C147.474609,62.9921875 142.875,60.7744141 145.318359,51.2597656 C147.761719,41.7451172 152.47168,30.6572266 167.076172,18.8759766 C181.680664,7.09472656 181.767578,3.90625 192.628906,3 C203.490234,2.09375 203.400391,8.11230469 205.307617,9.12011719 C207.214844,10.1279297 207.214844,13.3789063 207.214844,8.11816406 Z" id="Path-6" fill="#FFFFFF"></path>
                        <path d="M169.829875,41.4209279 C175.375529,40.3674611 180.696086,41.1416311 179.496867,45.460967 C178.297648,49.7803029 167.702922,67.3193654 164.824016,67.6611623 C161.945109,68.0029592 167.253215,60.8435354 170.859172,54.2431936 C174.465129,47.6428518 174.989787,46.0298147 173.942912,44.6196584 C172.896037,43.2095022 164.284221,42.4743947 169.829875,41.4209279 Z" id="Path-7" fill="#FFFFFF"></path>
                    </g>
                </g>
            </g>
        </g>
    </g>
</svg>